<svg width="60" height="60" viewBox="0 0 60 60" fill="none" xmlns="http://www.w3.org/2000/svg">
<path fill-rule="evenodd" clip-rule="evenodd" d="M43.0428 22.977C46.9243 19.0955 53.2074 19.0955 57.0889 22.977C60.9704 26.8584 60.9704 33.1416 57.0889 37.023C53.2074 40.9045 46.9243 40.9045 43.0428 37.023L40.0329 34.0132L34.0132 40.0329L37.023 43.0428C40.9045 46.9243 40.9045 53.2074 37.023 57.0889C33.1416 60.9704 26.8584 60.9704 22.977 57.0889C19.0955 53.2074 19.0955 46.9243 22.977 43.0428L25.9868 40.0329L19.9671 34.0132L16.9572 37.023C13.0757 40.9045 6.7926 40.9045 2.91111 37.023C-0.970372 33.1416 -0.970372 26.8584 2.91111 22.977C6.7926 19.0955 13.0757 19.0955 16.9572 22.977L19.9671 25.9868L25.9868 19.9671L22.977 16.9572C19.0955 13.0757 19.0955 6.7926 22.977 2.91111C26.8584 -0.970372 33.1416 -0.970372 37.023 2.91111C40.9045 6.7926 40.9045 13.0757 37.023 16.9572L34.0132 19.9671L40.0329 25.9868L43.0428 22.977ZM53.0757 33.0099C51.414 34.6716 48.7177 34.6716 47.056 33.0099L44.0461 30L47.056 26.9901C48.7177 25.3284 51.414 25.3284 53.0757 26.9901C54.7374 28.6518 54.7374 31.3482 53.0757 33.0099ZM26.9901 6.92428C28.6518 5.26258 31.3482 5.26258 33.0099 6.92428C34.6716 8.58598 34.6716 11.2823 33.0099 12.944L30 15.9539L26.9901 12.944C25.3284 11.2823 25.3284 8.58598 26.9901 6.92428ZM30 23.9802L23.9802 30L30 36.0198L36.0198 30L30 23.9802ZM6.92428 33.0099C5.26258 31.3482 5.26258 28.6518 6.92428 26.9901C8.58598 25.3284 11.2823 25.3284 12.944 26.9901L15.9539 30L12.944 33.0099C11.2823 34.6716 8.58598 34.6716 6.92428 33.0099ZM33.0099 53.0757C31.3482 54.7374 28.6518 54.7374 26.9901 53.0757C25.3284 51.414 25.3284 48.7177 26.9901 47.056L30 44.0461L33.0099 47.056C34.6716 48.7177 34.6716 51.414 33.0099 53.0757Z" fill="url(#paint0_linear_9117_30904)"/>
<path fill-rule="evenodd" clip-rule="evenodd" d="M57.0889 22.977C53.2074 19.0955 46.9243 19.0955 43.0428 22.977L40.0329 25.9868L34.0132 19.9671L37.023 16.9572C40.9045 13.0757 40.9045 6.7926 37.023 2.91111C33.1416 -0.970372 26.8584 -0.970372 22.977 2.91111C19.0955 6.7926 19.0955 13.0757 22.977 16.9572L25.9868 19.9671L19.9671 25.9868L16.9572 22.977C13.0757 19.0955 6.7926 19.0955 2.91111 22.977C-0.970372 26.8584 -0.970372 33.1416 2.91111 37.023C6.7926 40.9045 13.0757 40.9045 16.9572 37.023L19.9671 34.0132L25.9868 40.0329L22.977 43.0428C19.0955 46.9243 19.0955 53.2074 22.977 57.0889C26.8584 60.9704 33.1416 60.9704 37.023 57.0889C40.9045 53.2074 40.9045 46.9243 37.023 43.0428L34.0132 40.0329L40.0329 34.0132L43.0428 37.023C46.9243 40.9045 53.2074 40.9045 57.0889 37.023C60.9704 33.1416 60.9704 26.8584 57.0889 22.977ZM33.0099 53.0757C31.3482 54.7374 28.6518 54.7374 26.9901 53.0757C25.3284 51.414 25.3284 48.7177 26.9901 47.056L30 44.0461L33.0099 47.056C34.6716 48.7177 34.6716 51.414 33.0099 53.0757ZM23.9802 30L30 23.9802L36.0198 30L30 36.0198L23.9802 30ZM26.9901 6.92428C28.6518 5.26258 31.3482 5.26258 33.0099 6.92428C34.6716 8.58598 34.6716 11.2823 33.0099 12.944L30 15.9539L26.9901 12.944C25.3284 11.2823 25.3284 8.58598 26.9901 6.92428ZM6.92428 26.9901C5.26258 28.6518 5.26258 31.3482 6.92428 33.0099C8.58598 34.6716 11.2823 34.6716 12.944 33.0099L15.9539 30L12.944 26.9901C11.2823 25.3284 8.58598 25.3284 6.92428 26.9901ZM53.0757 33.0099C51.414 34.6716 48.7177 34.6716 47.056 33.0099L44.0461 30L47.056 26.9901C48.7177 25.3284 51.414 25.3284 53.0757 26.9901C54.7374 28.6518 54.7374 31.3482 53.0757 33.0099Z" fill="url(#paint1_linear_9117_30904)"/>
<defs>
<linearGradient id="paint0_linear_9117_30904" x1="0" y1="30" x2="60" y2="30" gradientUnits="userSpaceOnUse">
<stop stop-color="#2CE97A"/>
<stop offset="1" stop-color="#D9D314"/>
</linearGradient>
<linearGradient id="paint1_linear_9117_30904" x1="0" y1="30" x2="60" y2="30" gradientUnits="userSpaceOnUse">
<stop stop-color="#2CE97A"/>
<stop offset="1" stop-color="#D9D314"/>
</linearGradient>
</defs>
</svg>
